inDegrees=no
num_controls=7
num_derivatives=13
num_iterations=183
num_multipliers=7
num_parameters=0
num_slacks=7
num_states=26
objective=0.507348
objective_accelerations=0.040571
objective_balance=0.003669
objective_effort=0.030673
objective_height=0.320037
objective_ligament=0.112397
solver_duration=2442.927595
status=Solve_Succeeded
success=true
DataType=double
version=3
OpenSimVersion=4.5
endheader
time	/jointset/ground_pelvis/pelvis_tilt/value	/jointset/ground_pelvis/pelvis_tx/value	/jointset/ground_pelvis/pelvis_ty/value	/jointset/hip_l/hip_flexion_l/value	/jointset/hip_l/hip_adduction_l/value	/jointset/hip_l/hip_rotation_l/value	/jointset/back/lumbar_extension/value	/jointset/patellofemoral_l/patellar_flexion_l/value	/jointset/knee_l/knee_flexion_l/value	/jointset/knee_l/knee_adduction_l/value	/jointset/knee_l/knee_rotation_l/value	/jointset/ankle_l/ankle_angle_l/value	/jointset/subtalar_l/subtalar_angle_l/value	/jointset/ground_pelvis/pelvis_tilt/speed	/jointset/ground_pelvis/pelvis_tx/speed	/jointset/ground_pelvis/pelvis_ty/speed	/jointset/hip_l/hip_flexion_l/speed	/jointset/hip_l/hip_adduction_l/speed	/jointset/hip_l/hip_rotation_l/speed	/jointset/back/lumbar_extension/speed	/jointset/patellofemoral_l/patellar_flexion_l/speed	/jointset/knee_l/knee_flexion_l/speed	/jointset/knee_l/knee_adduction_l/speed	/jointset/knee_l/knee_rotation_l/speed	/jointset/ankle_l/ankle_angle_l/speed	/jointset/subtalar_l/subtalar_angle_l/speed	/forceset/tau_hip_flexion_l	/forceset/tau_hip_adduction_l	/forceset/tau_hip_rotation_l	/forceset/tau_knee_flexion_l	/forceset/tau_ankle_angle_l	/forceset/tau_subtalar_angle_l	/forceset/tau_lumbar_extension	lambda_cid13_p0	lambda_cid13_p1	lambda_cid13_p2	lambda_cid13_p3	lambda_cid13_p4	lambda_cid13_p5	lambda_cid14_p0	/jointset/ground_pelvis/pelvis_tilt/accel	/jointset/ground_pelvis/pelvis_tx/accel	/jointset/ground_pelvis/pelvis_ty/accel	/jointset/hip_l/hip_flexion_l/accel	/jointset/hip_l/hip_adduction_l/accel	/jointset/hip_l/hip_rotation_l/accel	/jointset/back/lumbar_extension/accel	/jointset/patellofemoral_l/patellar_flexion_l/accel	/jointset/knee_l/knee_flexion_l/accel	/jointset/knee_l/knee_adduction_l/accel	/jointset/knee_l/knee_rotation_l/accel	/jointset/ankle_l/ankle_angle_l/accel	/jointset/subtalar_l/subtalar_angle_l/accel	gamma_cid13_p0	gamma_cid13_p1	gamma_cid13_p2	gamma_cid13_p3	gamma_cid13_p4	gamma_cid13_p5	gamma_cid14_p0
1	-0.185046251126955	-0.07915861991037322	0.7167480887133698	1.300311908921306	-0.3312795460277113	0.02143408177936691	-0.9599301013375668	1.206987072103077	1.206987072103043	-0.0910659175082202	-0.1744871732910701	0.1731465883740228	0.01879238507268781	0.1095207843003728	0.02137753759951868	0.06980507809379692	-0.299459435221905	0.0008598269032943273	-0.07183057603486673	2.302278585910485e-05	-0.177869730604152	-0.1778697306041706	0.005706907727027029	0.002885642336424254	0.002855952960448474	0.003226715331194092	-0.4235847270086745	0.05036780874956782	-0.003920928190114879	-0.27170413005863	0.04857815408988393	0.02290137723428844	0.4459079850747921	-35.19371114079726	-3.190892621907984	-0.6229538149573831	15.14425928066704	-789.008319909003	-46.07774670189752	-0.9682616322895384	1.303310045810452	0.03707226995858681	1.332710643135109	-4.945381421252575	0.08879908051120008	-1.792487694688186	-0.04596114986264959	-4.424245664914398	-4.424245664914124	0.2258821461386862	0.08788272867591645	-1.043142868299957	-0.2553127454155672	-1.167265157573433e-08	-6.200017212532691e-09	6.487222185056596e-08	6.245826643686908e-09	-2.393098146798855e-08	6.827124723662589e-08	-1.488428901051633e-08
1.01	-0.183886975875076	-0.07894298398466031	0.7175124022692313	1.297071958005142	-0.3312657149983161	0.02062589224751517	-0.9599307394755744	1.204987762785344	1.204987762785235	-0.09099598612959127	-0.1744530940576177	0.1731230542360723	0.01881285436337515	0.122271132036395	0.02175236787954783	0.08303187300731882	-0.3484212464262215	0.001922537657178957	-0.08978249192502151	-6.473548034580711e-05	-0.22196469334424	-0.2219646933442477	0.008282502100186558	0.003940939916557648	-0.007576854121309173	0.0008806101315821842	-0.4224991069404631	0.05050640028781444	-0.003964222787222909	-0.2714788732188683	0.04871588561220679	0.02298334606582048	0.4453656896576038	-35.10239409516243	-3.249687780643078	-0.6053479328256923	14.99119033784502	-788.3766635310407	-46.15381072042434	-0.9992176477617069	1.25142509274193	0.03809792150620122	1.313794607286914	-4.855158319062454	0.1174240192085727	-1.792834612706171	0.02270404901910226	-4.398001681588457	-4.398001681587019	0.2738596063559597	0.1159830121800063	-1.045461038154439	-0.2222468776435187	-1.578647956847755e-08	-1.563554580815291e-08	8.600975022683834e-08	7.309263741281051e-09	-2.646193282603666e-08	7.573293410390697e-08	-1.973717906706465e-08
1.02	-0.1826020915547902	-0.07872351785325084	0.7184082099125934	1.293345673507125	-0.3312407734721066	0.01963892534146077	-0.9599296777520493	1.202548327819604	1.202548327819421	-0.09090020650253669	-0.1744081359004614	0.1729947697452961	0.01881026510798438	0.1346425979821757	0.02214357873883039	0.09610389559391107	-0.3967261515921861	0.003081926266321397	-0.1075860508762599	0.00036299481419296	-0.2658948602056274	-0.2658948602056272	0.01087655741140094	0.005061427076608615	-0.01809411760469836	-0.001384993884410968	-0.4214134868722513	0.05064499182606629	-0.004007517384324344	-0.2712536163791062	0.04885361713453092	0.02306531489735916	0.4448233942404136	-35.02252335940049	-3.305595383021017	-0.5892115221328339	14.89152149281576	-787.8930756866878	-46.21832410989732	-1.037564746105408	1.22753368776216	0.04034838580927493	1.301756177749182	-4.814000213582217	0.1081346515627522	-1.762816306904948	0.05713656228567145	-4.391286489174287	-4.391286489174597	0.2295743337496677	0.1009206446594022	-1.060034148626262	-0.2392125086918267	-2.252571102087341e-08	-2.792234491015128e-08	1.031453992337372e-07	1.361884029390565e-08	-3.426799302045778e-08	8.174758899306181e-08	-2.410791961845932e-08
1.03	-0.1811952341684947	-0.07849981600439622	0.719434088756692	1.289138961743303	-0.3312037926504499	0.01847461204942111	-0.9599204992064214	1.199670243180201	1.19967024318014	-0.09077848284166355	-0.1743517499902154	0.1727612212046409	0.01878550310763179	0.1466808424836006	0.02262390813107207	0.109058765704377	-0.4445740016480798	0.004325220125735902	-0.1252616961834369	0.001685393876044936	-0.3097130583869595	-0.3097130583869616	0.01346388314316743	0.00621244786505399	-0.02859715421323777	-0.003547677628189778	-0.4220825965130282	0.05105717044350516	-0.004069582597195348	-0.2704755974092642	0.04876672548319733	0.02328752247129031	0.4462323997228357	-35.06391543638387	-3.41168196258492	-0.5530752917021265	14.41892900031945	-788.5782369883315	-46.28860536561195	-1.083654484428989	1.18476215079375	0.05594681574727858	1.290377826273705	-4.763850818172714	0.1340649751490745	-1.767727336161534	0.2016935130726676	-4.375729368216649	-4.375729368216813	0.2726537500647649	0.1217235483119477	-1.042675202484839	-0.2018445219645199	-2.929173230449024e-08	-4.023823860915353e-08	1.202402127368668e-07	1.998194888178569e-08	-4.212788085606641e-08	8.774747824978679e-08	-2.847374027694425e-08
